<svg id="visual" viewBox="0 0 960 540" width="960" height="540" xmlns="http://www.w3.org/2000/svg" xmlns:xlink="http://www.w3.org/1999/xlink" version="1.1"><rect x="0" y="0" width="960" height="540" fill="#f6f6f6"></rect><defs><linearGradient id="grad1_0" x1="43.8%" y1="100%" x2="100%" y2="0%"><stop offset="14.444444444444446%" stop-color="#f6f6f6" stop-opacity="1"></stop><stop offset="85.55555555555554%" stop-color="#f6f6f6" stop-opacity="1"></stop></linearGradient></defs><defs><linearGradient id="grad2_0" x1="0%" y1="100%" x2="56.3%" y2="0%"><stop offset="14.444444444444446%" stop-color="#f6f6f6" stop-opacity="1"></stop><stop offset="85.55555555555554%" stop-color="#f6f6f6" stop-opacity="1"></stop></linearGradient></defs><g transform="translate(960, 540)"><path d="M-297 0C-282.1 -47.5 -267.1 -95 -244.2 -141C-221.3 -187 -190.5 -231.5 -148.5 -257.2C-106.5 -283 -53.2 -290 0 -297L0 0Z" fill="#FBAE3C"></path></g><g transform="translate(0, 0)"><path d="M297 0C281.6 47.2 266.2 94.5 243.4 140.5C220.5 186.5 190.3 231.3 148.5 257.2C106.7 283.1 53.4 290 0 297L0 0Z" fill="#FBAE3C"></path></g></svg>