<svg id="visual" viewBox="0 0 540 960" width="540" height="960" xmlns="http://www.w3.org/2000/svg" xmlns:xlink="http://www.w3.org/1999/xlink" version="1.1"><rect x="0" y="0" width="540" height="960" fill="#022a48"></rect><defs><linearGradient id="grad1_0" x1="0%" y1="100%" x2="100%" y2="0%"><stop offset="30%" stop-color="#022a48" stop-opacity="1"></stop><stop offset="70%" stop-color="#022a48" stop-opacity="1"></stop></linearGradient></defs><defs><linearGradient id="grad2_0" x1="0%" y1="100%" x2="100%" y2="0%"><stop offset="30%" stop-color="#022a48" stop-opacity="1"></stop><stop offset="70%" stop-color="#022a48" stop-opacity="1"></stop></linearGradient></defs><g transform="translate(540, 960)"><path d="M-243 0C-224.9 -35.5 -206.8 -70.9 -188.8 -109C-170.8 -147.1 -152.9 -187.7 -121.5 -210.4C-90.1 -233.2 -45 -238.1 0 -243L0 0Z" fill="#FBAE3C"></path></g><g transform="translate(0, 0)"><path d="M243 0C226.7 36.5 210.5 73.1 192.3 111C174 148.9 153.9 188.2 121.5 210.4C89.1 232.7 44.6 237.8 0 243L0 0Z" fill="#FBAE3C"></path></g></svg>