<svg id="visual" viewBox="0 0 960 540" width="960" height="540" xmlns="http://www.w3.org/2000/svg" xmlns:xlink="http://www.w3.org/1999/xlink" version="1.1"><rect x="0" y="0" width="960" height="540" fill="#022a48"></rect><defs><linearGradient id="grad1_0" x1="43.8%" y1="100%" x2="100%" y2="0%"><stop offset="14.444444444444446%" stop-color="#022a48" stop-opacity="1"></stop><stop offset="85.55555555555554%" stop-color="#022a48" stop-opacity="1"></stop></linearGradient></defs><defs><linearGradient id="grad2_0" x1="0%" y1="100%" x2="56.3%" y2="0%"><stop offset="14.444444444444446%" stop-color="#022a48" stop-opacity="1"></stop><stop offset="85.55555555555554%" stop-color="#022a48" stop-opacity="1"></stop></linearGradient></defs><g transform="translate(960, 540)"><path d="M-243 0C-226.3 -36.3 -209.6 -72.5 -191.4 -110.5C-173.2 -148.5 -153.6 -188.1 -121.5 -210.4C-89.4 -232.8 -44.7 -237.9 0 -243L0 0Z" fill="#FBAE3C"></path></g><g transform="translate(0, 0)"><path d="M243 0C239.6 47.6 236.1 95.1 210.4 121.5C184.7 147.9 136.8 153 98 169.7C59.2 186.5 29.6 214.7 0 243L0 0Z" fill="#FBAE3C"></path></g></svg>