<svg width="382" height="33" viewBox="0 0 382 33" fill="none" xmlns="http://www.w3.org/2000/svg">
<path d="M165.096 30.7651C180.552 29.1603 196.011 27.9235 211.506 27.2202C220.201 26.826 228.895 26.6004 237.595 26.4033C249.352 26.1368 261.739 26.281 273.238 22.6789C273.845 22.4891 272.004 22.4216 271.385 22.3079C270.093 22.07 268.784 21.9544 267.488 21.7549C264.262 21.2579 261.053 20.9093 257.816 20.571C246.691 19.4079 235.532 18.6377 224.369 18.5154C191.785 18.1577 159.864 18.2192 127.372 22.028C116.944 23.2508 106.551 24.7029 96.1377 26.127C93.7443 26.4543 86.5111 26.2439 84.8456 29.0824C84.192 30.1963 87.0721 29.0727 88.1849 29.0319C90.1338 28.9607 92.0656 28.993 94.0135 29.0806C100.218 29.3592 106.43 29.2126 112.632 28.7721C130.904 27.4745 149.249 26.8498 167.546 26.0109C203.089 24.3817 238.579 20.4737 274.081 18.0026C284.708 17.2634 295.3 15.8344 305.927 15.1762C311.889 14.8069 320.039 15.6544 325.484 12.0073C326.61 11.2536 322.945 11.6003 321.676 11.3904C319.424 11.0181 317.211 10.6793 314.943 10.4567C307.419 9.71874 299.797 9.94928 292.252 9.45652C270.424 8.03055 248.56 7.43255 226.692 7.41612C181.102 7.38327 134.77 7.75252 89.3355 12.6479C71.4941 14.5703 50.4779 13.5002 33.391 21.0054C32.0853 21.5791 36.1643 21.0674 37.5448 21.2116C40.2148 21.4908 42.9286 21.253 45.6075 21.4708C53.955 22.1503 62.2853 21.4075 70.6363 21.1356C95.552 20.3222 120.518 20.203 145.468 19.5447C173.002 18.8178 200.413 15.2735 227.907 13.575C259.248 11.6387 290.58 10.4992 321.908 8.31891C336.659 7.29202 351.411 6.98665 366.179 7.02863C368.28 7.03471 378.188 8.54157 379.617 6.49083C380.585 5.1038 376.696 5.87941 375.233 5.59836C371.924 4.96324 368.606 4.62263 365.277 4.2047C356.338 3.08412 347.328 2.24819 338.342 2.09732C310.979 1.63862 283.588 2.98673 256.23 2.33154C226.014 1.60821 195.528 3.73073 165.301 4.63838C138.102 5.45539 110.783 3.65286 83.5629 3.89377C56.5324 4.13346 29.0153 9.69217 2 7.20463" stroke="white" stroke-width="3" stroke-miterlimit="1.5" stroke-linecap="round" stroke-linejoin="round"/>
</svg>
