<svg id="visual" viewBox="0 0 960 540" width="960" height="540" xmlns="http://www.w3.org/2000/svg" xmlns:xlink="http://www.w3.org/1999/xlink" version="1.1"><rect x="0" y="0" width="960" height="540" fill="#eef1f3"></rect><path d="M0 401L20 412.3C40 423.7 80 446.3 120 451.5C160 456.7 200 444.3 240 431.8C280 419.3 320 406.7 360 405.8C400 405 440 416 480 433.5C520 451 560 475 600 474.2C640 473.3 680 447.7 720 447.5C760 447.3 800 472.7 840 485.2C880 497.7 920 497.3 940 497.2L960 497L960 541L940 541C920 541 880 541 840 541C800 541 760 541 720 541C680 541 640 541 600 541C560 541 520 541 480 541C440 541 400 541 360 541C320 541 280 541 240 541C200 541 160 541 120 541C80 541 40 541 20 541L0 541Z" fill="#0066FF" stroke-linecap="round" stroke-linejoin="miter"></path></svg>